<svg width="250" height="228" viewBox="0 0 250 228" fill="none" xmlns="http://www.w3.org/2000/svg">
<path fill-rule="evenodd" clip-rule="evenodd" d="M249.889 48.2014C249.905 47.0769 249.913 45.9652 249.913 44.8676C249.913 1.53131 94.7861 1.12085 75.6379 1.12085C74.1812 1.12085 74.2905 1.1251 75.6621 1.17848C87.7621 1.64939 198.1 5.94348 198.1 44.8676C198.1 47.162 198.129 49.5183 198.187 51.9234V227.555H250V48.2014H249.889Z" fill="#03C7F7"/>
<path fill-rule="evenodd" clip-rule="evenodd" d="M198.076 48.2015C198.092 47.077 198.1 45.9653 198.1 44.8677C198.1 1.53142 76.7643 0 57.616 0C55.5566 0 55.9271 0.0317282 58.0708 0.215285C70.8199 1.30698 146.287 7.76916 146.287 44.8677C146.287 47.1628 146.316 49.5199 146.374 51.9258V227.555H198.187V48.2015H198.076Z" fill="#FFD203"/>
<path fill-rule="evenodd" clip-rule="evenodd" d="M148.516 48.2015C148.532 47.077 148.54 45.9653 148.54 44.8677C148.54 1.53142 65.5007 0 46.3524 0C43.4708 0 43.7932 0.062119 46.146 0.51537C55.4753 2.31259 96.727 10.2595 96.727 44.8677C96.727 47.1622 96.7564 49.5185 96.8141 51.9237V227.555H148.627V48.2015H148.516Z" fill="#FF4200"/>
<mask id="mask0_231_3" style="mask-type:alpha" maskUnits="userSpaceOnUse" x="1" y="37" width="191" height="191">
<path d="M96.2065 189.492C65.1287 189.492 39.6349 164.134 39.6349 132.483C39.6349 100.831 65.1287 75.474 96.2065 75.474C127.284 75.474 152.778 100.831 152.778 132.483C152.778 164.134 127.284 189.492 96.2065 189.492Z" fill="black" stroke="black" stroke-width="76.6089"/>
</mask>
<g mask="url(#mask0_231_3)">
<path d="M60.3065 194.098L-25.1298 135.325L59.8629 75.9697L60.3065 194.098Z" fill="black" stroke="black" stroke-width="68.2096"/>
</g>
<path d="M42.7848 142.754C43.0402 142.946 43.1041 143.329 42.9125 143.52C38.5702 149.268 31.8651 152.588 24.7769 152.588C12.133 152.588 1.91574 142.115 1.91574 129.152C1.91574 116.253 12.133 105.716 24.7769 105.716C28.4806 105.716 32.0567 106.61 35.3134 108.335C38.1232 109.867 40.6775 111.975 42.6571 114.465C42.8487 114.72 42.7848 115.04 42.5294 115.231L34.9303 120.787C34.7387 120.978 34.4194 120.915 34.2279 120.723C31.8013 117.913 28.4168 116.381 24.7769 116.381C17.8802 116.381 12.2607 122.128 12.2607 129.152C12.2607 136.241 17.8802 141.988 24.7769 141.988C28.5445 141.988 32.0567 140.264 34.4833 137.326C34.611 137.071 34.9941 137.071 35.1857 137.198L42.7848 142.754ZM55.967 117.275C56.2224 117.275 56.4778 117.53 56.4778 117.849V150.545C56.4778 150.8 56.2224 151.056 55.967 151.056H46.516C46.1967 151.056 46.0051 150.8 46.0051 150.545V117.849C46.0051 117.53 46.1967 117.275 46.516 117.275H55.967ZM55.967 106.674C56.2224 106.674 56.4778 106.93 56.4778 107.185V114.082C56.4778 114.401 56.2224 114.657 55.967 114.657H46.516C46.1967 114.657 46.0051 114.401 46.0051 114.082V107.185C46.0051 106.93 46.1967 106.674 46.516 106.674H55.967ZM87.1671 120.276C90.6154 123.724 91.1901 126.534 91.1901 131.515V150.545C91.1901 150.8 90.9347 151.056 90.6154 151.056H80.5897C80.2704 151.056 80.015 150.8 80.015 150.545V132.026C80.015 130.813 79.9511 129.344 79.4403 128.194C79.1848 127.684 78.8655 127.3 78.4824 126.981C77.8438 126.534 77.0137 126.279 75.9919 126.279C74.0762 126.279 72.5436 126.917 72.0966 128.003C71.5219 129.152 71.5219 130.749 71.5219 132.026V150.545C71.5219 150.8 71.2664 151.056 71.011 151.056H60.9215C60.6022 151.056 60.4106 150.8 60.4106 150.545V117.849C60.4106 117.53 60.6022 117.275 60.9215 117.275H70.3724C70.6279 117.275 70.8833 117.53 70.8833 117.849V118.743C70.8833 118.999 71.1387 119.127 71.3303 118.999C78.9294 113.763 86.3369 119.574 86.4008 119.637C86.6562 119.829 86.9116 120.021 87.1671 120.276ZM128.52 129.472C129.031 131.068 129.286 132.728 129.286 134.453C129.286 135.41 129.159 136.56 128.967 137.582C128.967 137.837 128.712 138.029 128.456 138.029H104.829C104.382 138.029 104.126 138.476 104.318 138.859C105.787 141.285 108.405 142.818 111.278 142.818C113.705 142.818 116.004 141.796 117.6 139.689C117.728 139.561 117.92 139.433 118.175 139.497L127.179 141.094C127.562 141.158 127.754 141.541 127.562 141.86C127.371 142.307 127.115 142.818 126.987 143.073L126.86 143.329C126.668 143.584 126.54 143.776 126.413 144.095C126.157 144.414 125.966 144.67 125.774 144.925L125.646 145.053C125.583 145.181 125.519 145.245 125.455 145.308L125.391 145.436C125.263 145.628 125.136 145.755 125.008 145.883L124.88 146.011C124.689 146.266 124.497 146.458 124.305 146.649L124.178 146.777C123.986 146.969 123.858 147.096 123.731 147.224L123.667 147.288C123.539 147.416 123.348 147.543 123.22 147.671L123.028 147.863L122.837 147.671L122.964 147.863C122.709 148.118 122.517 148.31 122.262 148.437L122.07 148.629C121.751 148.821 121.496 149.012 121.176 149.204L121.113 149.268C120.793 149.459 120.474 149.651 120.091 149.842L120.027 149.906C119.963 149.97 119.835 150.034 119.772 150.034L119.708 150.098C119.58 150.162 119.388 150.225 119.261 150.289L119.197 150.353C118.878 150.481 118.558 150.609 118.239 150.736V150.8C117.984 150.864 117.856 150.928 117.664 150.992L117.409 151.056C117.217 151.119 116.962 151.247 116.77 151.311H116.706C116.451 151.375 116.195 151.439 115.94 151.503L115.748 151.566C115.238 151.694 114.727 151.822 114.216 151.886L114.024 151.95C113.45 152.013 112.939 152.077 112.364 152.077H112.172C111.853 152.141 111.598 152.141 111.342 152.141C111.087 152.141 110.831 152.141 110.512 152.077C110.448 152.077 110.384 152.077 110.321 152.077H110.257C110.065 152.077 109.874 152.077 109.682 152.013H109.618C109.554 152.013 109.49 152.013 109.427 152.013C109.107 152.013 108.852 151.95 108.66 151.886H108.596H108.469C108.277 151.886 108.022 151.822 107.83 151.758L107.575 151.694C107.383 151.694 107.192 151.63 107 151.566H106.936C106.872 151.566 106.872 151.566 106.808 151.566C106.489 151.439 106.234 151.375 106.042 151.311C105.787 151.247 105.531 151.183 105.276 151.056C105.212 151.056 105.148 151.056 105.084 150.992C104.893 150.928 104.701 150.864 104.509 150.8L104.446 150.736C104.382 150.736 104.382 150.736 104.318 150.672C104.062 150.609 103.807 150.481 103.615 150.353H103.552C103.36 150.289 103.105 150.162 102.913 150.034C102.849 149.97 102.785 149.97 102.721 149.906H102.658C102.53 149.842 102.338 149.715 102.211 149.651L101.955 149.523C101.764 149.395 101.572 149.268 101.317 149.076C99.2093 147.671 97.3574 145.755 96.0164 143.584C95.8887 143.393 95.8248 143.265 95.6971 143.073L95.6332 142.946C95.5694 142.818 95.4417 142.626 95.3778 142.435L95.3139 142.307C95.2501 142.243 95.2501 142.243 95.2501 142.179C94.8669 141.477 94.6115 140.711 94.3561 139.944C94.1645 139.561 94.1006 139.178 93.9729 138.859C93.9091 138.603 93.8452 138.284 93.7814 138.029C93.5898 137.135 93.5259 136.241 93.4621 135.347C93.4621 135.027 93.4621 134.772 93.4621 134.453C93.4621 134.133 93.4621 133.814 93.4621 133.559C93.5259 131.962 93.8452 130.429 94.3561 128.897C94.4838 128.386 94.6754 128.003 94.8669 127.556C94.9308 127.3 95.0585 127.109 95.1862 126.853C95.1862 126.79 95.1862 126.726 95.2501 126.662L95.3139 126.534C95.3139 126.534 95.3778 126.47 95.3778 126.406C95.4417 126.343 95.4417 126.279 95.5055 126.215L95.6332 125.959C95.7609 125.704 95.8887 125.512 96.0164 125.257C97.3574 123.086 99.2093 121.234 101.317 119.765C101.572 119.637 101.764 119.51 101.955 119.382L102.211 119.254C102.338 119.127 102.53 119.063 102.658 118.999L102.721 118.935C102.785 118.935 102.849 118.871 102.913 118.871C103.105 118.743 103.36 118.616 103.552 118.488C103.807 118.424 104.062 118.296 104.318 118.169C104.382 118.169 104.382 118.169 104.446 118.105H104.509C104.701 118.041 104.893 117.977 105.084 117.913V117.849C105.148 117.849 105.212 117.849 105.276 117.786C105.531 117.722 105.787 117.658 106.042 117.53C106.298 117.466 106.553 117.402 106.808 117.339C106.872 117.339 106.872 117.339 106.936 117.275H107C107.192 117.211 107.383 117.211 107.575 117.147H107.702C107.958 117.083 108.341 117.019 108.596 116.955C108.66 116.955 108.66 116.955 108.66 116.955C108.852 116.955 109.107 116.892 109.427 116.892C109.49 116.892 109.554 116.828 109.618 116.828H109.682C109.874 116.828 110.065 116.828 110.257 116.828H110.321C110.384 116.764 110.448 116.764 110.512 116.764C110.831 116.764 111.087 116.764 111.342 116.764C111.598 116.764 111.853 116.764 112.172 116.764L112.364 116.828C112.939 116.828 113.45 116.892 113.96 116.955L114.216 117.019C114.727 117.083 115.238 117.147 115.748 117.275L115.94 117.339C116.195 117.402 116.451 117.53 116.706 117.594H116.77C116.962 117.658 117.217 117.722 117.409 117.786C117.473 117.849 117.537 117.849 117.6 117.913C117.856 117.977 117.984 118.041 118.175 118.105H118.303C118.558 118.233 118.878 118.424 119.197 118.552H119.261C119.388 118.68 119.58 118.743 119.708 118.807L119.644 119.063L119.772 118.807C119.835 118.871 119.963 118.935 120.027 118.999C120.346 119.127 120.793 119.446 121.113 119.637C121.432 119.829 121.751 120.021 122.007 120.276H122.07C122.134 120.34 122.198 120.404 122.262 120.404C122.517 120.595 122.709 120.787 122.964 120.978L123.156 121.106C123.348 121.298 123.475 121.425 123.667 121.617L123.731 121.681C123.858 121.809 123.986 121.936 124.178 122.064L124.242 122.192C124.497 122.447 124.689 122.639 124.88 122.83L124.689 123.086L124.88 122.894L125.008 123.022C125.136 123.15 125.263 123.277 125.391 123.405L125.455 123.533C125.583 123.724 125.774 123.916 125.902 124.108C126.03 124.235 126.093 124.427 126.221 124.555L126.413 124.81C126.477 125.002 126.54 125.129 126.668 125.257L126.987 125.768C127.626 126.981 128.137 128.194 128.52 129.472ZM118.175 130.621C118.494 130.621 118.75 130.302 118.686 129.982C118.303 127.492 115.429 125.512 111.789 125.512C108.405 125.512 105.276 127.492 104.829 129.982C104.765 130.302 105.02 130.621 105.34 130.621H118.175ZM172.395 106.674C172.778 106.674 173.034 107.057 172.906 107.377L158.218 151.056C158.155 151.311 157.899 151.439 157.708 151.439H147.171C146.916 151.439 146.724 151.311 146.66 151.056L131.909 107.377C131.781 107.057 132.037 106.674 132.42 106.674H144.744C145 106.674 145.191 106.866 145.255 107.121L151.897 132.664C152.024 133.175 152.791 133.175 152.918 132.664L159.623 107.121C159.623 106.866 159.879 106.674 160.134 106.674H172.395ZM184.681 117.275C184.936 117.275 185.191 117.53 185.191 117.849V150.545C185.191 150.8 184.936 151.056 184.681 151.056H175.23C174.91 151.056 174.719 150.8 174.719 150.545V117.849C174.719 117.53 174.91 117.275 175.23 117.275H184.681ZM184.681 106.674C184.936 106.674 185.191 106.93 185.191 107.185V114.082C185.191 114.401 184.936 114.657 184.681 114.657H175.23C174.91 114.657 174.719 114.401 174.719 114.082V107.185C174.719 106.93 174.91 106.674 175.23 106.674H184.681ZM220.287 150.481C220.351 150.8 220.095 151.056 219.776 151.056H189.635C189.252 151.056 188.997 150.609 189.188 150.225L202.343 127.428C202.534 127.045 202.279 126.598 201.896 126.598H190.657C190.401 126.598 190.146 126.406 190.082 126.151L189.124 117.913C189.06 117.594 189.316 117.275 189.635 117.275H219.201C219.584 117.275 219.84 117.722 219.648 118.105L206.494 140.966C206.302 141.285 206.557 141.732 206.941 141.732H218.754C219.01 141.732 219.265 141.988 219.265 142.243L220.287 150.481Z" fill="white"/>
</svg>
