<svg width="50" height="42" viewBox="0 0 50 42" fill="none" xmlns="http://www.w3.org/2000/svg">
<mask id="path-1-inside-1_378_5" fill="white">
<path fill-rule="evenodd" clip-rule="evenodd" d="M13.687 0C11.7571 0 10.1927 1.56446 10.1927 3.49433V9.52155H5.93632C2.65778 9.52155 0 12.1793 0 15.4579V36.0638C0 39.3424 2.65779 42.0001 5.93632 42.0001H43.3463C46.6249 42.0001 49.2826 39.3424 49.2826 36.0638V15.4579C49.2826 12.1793 46.6249 9.52155 43.3463 9.52155H39.2022V3.49433C39.2022 1.56447 37.6378 0 35.7079 0H13.687Z"/>
</mask>
<path fill-rule="evenodd" clip-rule="evenodd" d="M13.687 0C11.7571 0 10.1927 1.56446 10.1927 3.49433V9.52155H5.93632C2.65778 9.52155 0 12.1793 0 15.4579V36.0638C0 39.3424 2.65779 42.0001 5.93632 42.0001H43.3463C46.6249 42.0001 49.2826 39.3424 49.2826 36.0638V15.4579C49.2826 12.1793 46.6249 9.52155 43.3463 9.52155H39.2022V3.49433C39.2022 1.56447 37.6378 0 35.7079 0H13.687Z" fill="#FFD203"/>
<path d="M10.1927 9.52155V11.5215H12.1927V9.52155H10.1927ZM39.2022 9.52155H37.2022V11.5215H39.2022V9.52155ZM12.1927 3.49433C12.1927 2.66903 12.8617 2 13.687 2V-2C10.6526 -2 8.19266 0.45989 8.19266 3.49433H12.1927ZM12.1927 9.52155V3.49433H8.19266V9.52155H12.1927ZM5.93632 11.5215H10.1927V7.52155H5.93632V11.5215ZM2 15.4579C2 13.2839 3.76235 11.5215 5.93632 11.5215V7.52155C1.55321 7.52155 -2 11.0748 -2 15.4579H2ZM2 36.0638V15.4579H-2V36.0638H2ZM5.93632 40.0001C3.76235 40.0001 2 38.2378 2 36.0638H-2C-2 40.4469 1.55322 44.0001 5.93632 44.0001V40.0001ZM43.3463 40.0001H5.93632V44.0001H43.3463V40.0001ZM47.2826 36.0638C47.2826 38.2378 45.5203 40.0001 43.3463 40.0001V44.0001C47.7294 44.0001 51.2826 40.4469 51.2826 36.0638H47.2826ZM47.2826 15.4579V36.0638H51.2826V15.4579H47.2826ZM43.3463 11.5215C45.5203 11.5215 47.2826 13.2839 47.2826 15.4579H51.2826C51.2826 11.0748 47.7294 7.52155 43.3463 7.52155V11.5215ZM39.2022 11.5215H43.3463V7.52155H39.2022V11.5215ZM37.2022 3.49433V9.52155H41.2022V3.49433H37.2022ZM35.7079 2C36.5332 2 37.2022 2.66903 37.2022 3.49433H41.2022C41.2022 0.459898 38.7423 -2 35.7079 -2V2ZM13.687 2H35.7079V-2H13.687V2Z" fill="white" mask="url(#path-1-inside-1_378_5)"/>
</svg>
